<?xml version="1.0" encoding="UTF-8"?>
<svg width="24px" height="24px" viewBox="0 0 24 24" version="1.1" xmlns="http://www.w3.org/2000/svg" xmlns:xlink="http://www.w3.org/1999/xlink">
    <!-- Generator: Sketch 51.1 (57501) - http://www.bohemiancoding.com/sketch -->
    <title>Components/Atoms/Icons/Tomato</title>
    <desc>Created with Sketch.</desc>
    <defs></defs>
    <g id="Components/Atoms/Icons/Tomato" stroke="none" stroke-width="1" fill="none" fill-rule="evenodd">
        <g id="Tomato" transform="translate(2.000000, 3.000000)" stroke="#ADADAD" stroke-width="1.5">
            <path d="M19.6331667,8.67083333 C19.6331667,13.3416667 16.0706667,17.1333333 11.6823333,17.1333333 C11.2778889,17.1333333 10.6906667,17.4888889 9.92066667,18.2 C9.15094444,17.4888889 8.56386111,17.1333333 8.15941667,17.1333333 C3.77108333,17.1333333 0.208583333,13.3416667 0.208583333,8.67083333 C0.208583333,4 3.77108333,0.208333333 8.15941667,0.208333333 C8.76608333,0.208333333 9.35316667,0.279166667 9.92066667,0.420833333 C10.4885833,0.279166667 11.0756667,0.208333333 11.6823333,0.208333333 C16.0706667,0.208333333 19.6331667,4 19.6331667,8.67083333 Z" id="Stroke-1"></path>
            <path d="M10.1291667,8.67083333 L10.1291667,5.3375" id="Stroke-3"></path>
            <path d="M10.1291667,8.67083333 L6.99666667,7.53083333" id="Stroke-5"></path>
            <path d="M10.1291667,8.67083333 L13.2616667,7.53083333" id="Stroke-7"></path>
            <path d="M10.1291667,8.67083333 L7.98625,11.2241667" id="Stroke-9"></path>
            <path d="M10.1291667,8.67083333 L12.2720833,11.2241667" id="Stroke-11"></path>
        </g>
    </g>
</svg>